# xmcd
#
# Track frame offsets:
#   150
#   16183
#   31595
#   43868
#   64385
#   83225
#   99038
#   118987
#   133256
#   146998
#   160972
#   173756
#   188652
#   201873
#   218344
#   232366
#   249617
#   270583
#
# Disc length: 3855 seconds
#
# Revision: 0
# Processed by: cddbd v1.5.1PL0 Copyright (c) Steve Scherf et al.
# Submitted via: uFREEDB ActiveX Control 1.5
#
DISCID=030f0d12
DTITLE=BANDA LEGAL - SHOW BAILE 2004
DYEAR=1900
DGENRE=Country
TTITLE0=PEDE PRA ELA VOLTAR
TTITLE1=ESSA CAMA EU NÃO VENDO
TTITLE2=A 150 POR MINUTO
TTITLE3=BEIJO COM CERVEJA
TTITLE4=BELEZA NÃO SE POE NA MESA
TTITLE5=BEIJA,BEIJA
TTITLE6=SABOR DE MORANGO
TTITLE7=FEITIÇO
TTITLE8=MISTURADÃO
TTITLE9=HOROSCOPO
TTITLE10=MULHER TRANSGENICA
TTITLE11=TURBINADA
TTITLE12=AMOR PROIBIDO
TTITLE13=FESTEIRA
TTITLE14=OS BAILES LEMBRAM VOCE
TTITLE15=FOTO 3x4
TTITLE16=SUGA MEU MEL ( REMIX)
TTITLE17=TO CAINDO FORA (VIVO)
EXTD=
EXTT0=
EXTT1=
EXTT2=
EXTT3=
EXTT4=
EXTT5=
EXTT6=
EXTT7=
EXTT8=
EXTT9=
EXTT10=
EXTT11=
EXTT12=
EXTT13=
EXTT14=
EXTT15=
EXTT16=
EXTT17=
PLAYORDER=
